<?xml version="1.0" encoding="UTF-8"?>
<svg xmlns="http://www.w3.org/2000/svg" xmlns:xlink="http://www.w3.org/1999/xlink" viewBox="0 0 24 24" width="24px" height="24px">
<g id="surface14601729">
<path style="fill-rule:nonzero;fill:rgb(100%,100%,100%);fill-opacity:1;stroke-width:10;stroke-linecap:butt;stroke-linejoin:round;stroke:rgb(80.000001%,80.000001%,80.000001%);stroke-opacity:1;stroke-miterlimit:10;" d="M 150.489068 35.835236 C 150.489068 47.692903 140.860286 57.321685 129.002619 57.321685 C 123.920762 57.321685 118.987497 55.538578 115.094378 52.239828 L 64.097495 81.98801 C 64.364961 83.295622 64.483835 84.662672 64.513554 86.000003 C 64.483835 87.337334 64.364961 88.704383 64.097495 90.011995 L 115.124097 119.789896 C 118.987497 116.491146 123.920762 114.67832 129.002619 114.67832 C 140.860286 114.67832 150.489068 124.307102 150.489068 136.164769 C 150.489068 148.052154 140.860286 157.680936 129.002619 157.680936 C 117.115234 157.680936 107.486452 148.052154 107.486452 136.164769 C 107.51617 134.827438 107.635044 133.460389 107.90251 132.152776 L 56.875909 102.404594 C 52.98279 105.673625 48.079243 107.486452 42.997386 107.486452 C 31.139719 107.486452 21.510937 97.887388 21.510937 86.000003 C 21.510937 74.112617 31.139719 64.513554 42.997386 64.513554 C 48.079243 64.513554 53.012508 66.296661 56.905627 69.595411 L 107.90251 39.847229 C 107.635044 38.539617 107.51617 37.172567 107.486452 35.835236 C 107.486452 23.947851 117.115234 14.319069 129.002619 14.319069 C 140.860286 14.319069 150.489068 23.947851 150.489068 35.835236 Z M 150.489068 35.835236 " transform="matrix(0.131442,0,0,0.131442,0.696,0.696)"/>
<path style=" stroke:none;fill-rule:nonzero;fill:rgb(100%,100%,100%);fill-opacity:1;" d="M 17.652344 2.578125 C 16.089844 2.578125 14.824219 3.84375 14.824219 5.40625 C 14.828125 5.582031 14.84375 5.761719 14.878906 5.933594 L 8.175781 9.84375 C 7.664062 9.410156 7.015625 9.175781 6.347656 9.175781 C 4.789062 9.175781 3.523438 10.4375 3.523438 12 C 3.523438 13.5625 4.789062 14.824219 6.347656 14.824219 C 7.015625 14.824219 7.660156 14.585938 8.171875 14.15625 L 14.878906 18.066406 C 14.84375 18.238281 14.828125 18.417969 14.824219 18.59375 C 14.824219 20.15625 16.089844 21.421875 17.652344 21.421875 C 19.210938 21.421875 20.476562 20.15625 20.476562 18.59375 C 20.476562 17.035156 19.210938 15.769531 17.652344 15.769531 C 16.984375 15.769531 16.335938 16.007812 15.828125 16.441406 L 9.121094 12.527344 C 9.15625 12.355469 9.171875 12.175781 9.175781 12 C 9.171875 11.824219 9.15625 11.644531 9.121094 11.472656 L 15.824219 7.5625 C 16.335938 7.996094 16.984375 8.230469 17.652344 8.230469 C 19.210938 8.230469 20.476562 6.964844 20.476562 5.40625 C 20.476562 3.84375 19.210938 2.578125 17.652344 2.578125 Z M 17.652344 2.578125 "/>
</g>
</svg>
