<?xml version="1.0" encoding="UTF-8"?>
<svg xmlns="http://www.w3.org/2000/svg" xmlns:xlink="http://www.w3.org/1999/xlink" viewBox="0 0 24 24" width="24px" height="24px">
<g id="surface61811">
<path style="fill-rule:nonzero;fill:rgb(100%,100%,100%);fill-opacity:1;stroke-width:10;stroke-linecap:butt;stroke-linejoin:round;stroke:rgb(10.196079%,10.196079%,10.196079%);stroke-opacity:1;stroke-miterlimit:10;" d="M 157.660743 86.000001 C 157.660743 125.48895 125.48895 157.660743 86.000001 157.660743 C 46.511051 157.660743 14.339258 125.48895 14.339258 86.000001 C 14.339258 46.511051 46.511051 14.339258 86.000001 14.339258 C 125.48895 14.339258 157.660743 46.511051 157.660743 86.000001 Z M 28.677332 86.000001 C 28.677332 117.757056 54.242946 143.32267 86.000001 143.32267 C 117.757056 143.32267 143.32267 117.757056 143.32267 86.000001 C 143.32267 54.242946 117.757056 28.677332 86.000001 28.677332 C 54.242946 28.677332 28.677332 54.242946 28.677332 86.000001 Z M 86.000001 75.868552 L 109.610423 52.25813 L 119.741871 62.389578 L 96.131449 86.000001 L 119.741871 109.610423 L 109.610423 119.741871 L 86.000001 96.131449 L 62.389578 119.741871 L 52.25813 109.610423 L 75.868552 86.000001 L 52.25813 62.389578 L 62.389578 52.25813 Z M 86.000001 75.868552 " transform="matrix(0.13186,0,0,0.13186,0.66,0.66)"/>
<path style=" stroke:none;fill-rule:nonzero;fill:rgb(100%,100%,100%);fill-opacity:1;" d="M 12 2.550781 C 6.792969 2.550781 2.550781 6.792969 2.550781 12 C 2.550781 17.207031 6.792969 21.449219 12 21.449219 C 17.207031 21.449219 21.449219 17.207031 21.449219 12 C 21.449219 6.792969 17.207031 2.550781 12 2.550781 Z M 12 4.441406 C 16.1875 4.441406 19.558594 7.8125 19.558594 12 C 19.558594 16.1875 16.1875 19.558594 12 19.558594 C 7.8125 19.558594 4.441406 16.1875 4.441406 12 C 4.441406 7.8125 7.8125 4.441406 12 4.441406 Z M 8.886719 7.550781 L 7.550781 8.886719 L 10.664062 12 L 7.550781 15.113281 L 8.886719 16.449219 L 12 13.335938 L 15.113281 16.449219 L 16.449219 15.113281 L 13.335938 12 L 16.449219 8.886719 L 15.113281 7.550781 L 12 10.664062 Z M 8.886719 7.550781 "/>
</g>
</svg>
