<svg xmlns="http://www.w3.org/2000/svg" width="48" height="48" xmlnsV="https://vecta.io/nano"><g fill="#767676"><path d="M9.691 14.851s3.766.83 5.777-.128c.798-.383-.223-.67-.191-1.085s.255-.638 1.021-.957 1.691-.383 1.628.255-.064.989.734.862 4.628-1.628 5.266-2.234 2.33 3.862 2.33 3.862l-3.734 5.394-8.649 2.138-6.702-3.16 2.52-4.947z"/><path d="M31.638 17.404a12.77 12.77 0 0 0-3.893-9.19c-.601.115-1.104.162-1.306.174-.407.024-.862-.407-.814-.694s-.455-.622-1.34-.407-.942.576-.942.576l-.04.075c-.053.099-.032.096-.032.096s.546.367.535.665a1.09 1.09 0 0 1-.262.24c-.648.443-1.721.607-2.285.665-.209.021-.36.177-.403.375-.051.075-.087.162-.09.26-.013.403.048 1.031.437 1.637.15.234.477.295.698.126.741-.569 1.412-.914 1.906-.091.183.305.242.607.183.857-.196.352-.709.534-1.602.308-.272-.069-.545.103-.604.368-.047.066-.083.141-.091.228-.084.95.081 2.359.416 3.284-1.208.236-3.985.631-5.188 1.265-.099.052-.153.15-.163.253-.1.123-.105.311.017.427.26.249.483.608.419.947-.149.285-.536.54-1.359.676-1.287.212-1.485-.246-1.307-.752a2.21 2.21 0 0 1 .283-.431c.043-.051.064-.11.07-.169.166-.196.043-.496-.208-.53-1.273-.174-3.487-.145-4.655.112 0 0-.087-1.288.393-2.56a3.26 3.26 0 0 1 .63-.997c.234-.234.581.133.793.416.132.175.427.082.608-.04a1.74 1.74 0 0 0 .666-.841c.184-.367.265-.868.049-1.55-.066-.207-.729-.525-.939-.47-.529.138-.811.302-.646-.28.029-.06.051-.116.097-.185.498-.755.957-1.424 1.224-2.101.111-.251.204-.503.255-.759.039-.195-.506-.577-.822-.532-.153.045-.135-.054-.12-.123a1.57 1.57 0 0 1 .132-.196c.47-.596.913-.62 1.122-.451a.3.3 0 0 0 .379-.006c.431-.36.651-.709.751-.995.234-.475.142-.823-.015-.815l-.638-.223s-2.076 1.529-3.225 2.127c-.232.101-.573.149-.892.173L8.678 9.584a12.92 12.92 0 0 0-1.743 3.036 12.72 12.72 0 0 0-.97 5.934c.48 6.413 5.86 11.589 12.286 11.832 5.519.208 10.294-3.077 12.301-7.818.697-1.581 1.086-3.326 1.086-5.164z"/></g><path fill="#bebebe" d="M44.895 20.915h-.01l-.122-.908-.108-.707-.224-1.089-.124-.481c-.206-.792-.45-1.569-.744-2.322l-.018-.05-.529-1.227-.067-.14c-.589-1.234-1.293-2.403-2.101-3.491l-.733.273c-.39-.526-.906-1.126-1.46-1.724.099-.39-.14-.931-.648-1.334-.365-.289-.764-.418-1.099-.41-.822-.756-1.564-1.348-1.963-1.509a17.16 17.16 0 0 0-1.298.259c1.258.754.609 1.473.412 1.52-.232.055-1.053.112-1.695-1.211-1.295.328-2.698.732-3.331 1.036-.827.397-1.851.597-2.545.692C27.441 9.672 28 11.519 28 13.5 28 19.299 23.299 24 17.5 24S7 19.299 7 13.5c0-1.3.247-2.54.68-3.69l-.263.338a20.68 20.68 0 0 0-.667.892c-.163.235-.314.478-.468.72a20.39 20.39 0 0 0-.545.897c-.147.258-.285.522-.421.787a20.22 20.22 0 0 0-.446.926c-.125.276-.246.555-.359.837-.127.318-.242.642-.354.968-.099.288-.2.576-.287.87-.1.34-.182.687-.266 1.034-.07.29-.148.578-.205.872-.079.403-.132.815-.187 1.226-.033.246-.081.488-.106.737h0C3.038 21.601 3 22.296 3 23c0 11.598 9.402 21 21 21s21-9.402 21-21c0-.704-.038-1.399-.105-2.085z"/><path fill="#e1e1e1" d="M33.811 6.018l-.164.036c1.258.754.609 1.473.412 1.52-.232.055-1.053.112-1.695-1.211-1.295.328-2.698.732-3.331 1.036-.827.397-1.851.597-2.545.692C27.441 9.672 28 11.519 28 13.5 28 19.299 23.299 24 17.5 24S7 19.299 7 13.5c0-1.294.245-2.529.674-3.674-3.017 3.808-4.637 8.773-4.04 14.13.984 8.827 8.123 15.959 16.953 16.924C32.186 42.149 42 33.098 42 21.755c0-6.51-3.242-12.254-8.189-15.737z"/><path fill="#efefef" d="M30.713 6.812l-.482.146-.045.014-.386.127-.079.027-.307.112-.079.03-.304.13c-.827.397-1.851.597-2.545.692A10.43 10.43 0 0 1 28 13.5C28 19.299 23.299 24 17.5 24S7 19.299 7 13.5c0-1.289.243-2.518.668-3.658l-.176.214a16.24 16.24 0 0 0-3.036 11.575c.88 7.465 6.938 13.472 14.411 14.273A16.34 16.34 0 0 0 37 19.67c0-5.227-2.466-9.869-6.287-12.858z"/><path fill="#f5f5f5" d="M27.107 7.991c-.601.115-1.104.162-1.306.174-.407.024-.862-.407-.814-.694s-.455-.622-1.34-.407-1.029.838-1.029.838 1.197.192.287.814c-.648.443-1.721.607-2.285.665-.24.025-.413.223-.421.464-.013.403.048 1.031.437 1.637.15.234.477.295.698.126.741-.569 1.412-.914 1.906-.091.522.869.096 1.738-1.491 1.336-.292-.074-.596.125-.622.425-.088.998.092 2.517.462 3.433-1.143.233-4.067.634-5.306 1.287-.187.098-.226.363-.073.509.531.508.923 1.475-1.012 1.794-1.813.299-1.481-.73-.952-1.355.164-.194.041-.494-.21-.528-1.273-.174-3.487-.145-4.655.112 0 0-.168-2.37 1.149-3.854.234-.234.58.133.793.416.132.175.373.208.554.086.432-.291 1.045-.95.643-2.219-.066-.207-.294-.301-.504-.246-.622.163-1.519.059-.912-.861.641-.972 1.229-1.801 1.408-2.688.039-.195-.148-.355-.346-.33-.465.058-.874-.079-.392-.692.47-.597.913-.62 1.122-.451.111.089.27.085.379-.007 1.004-.84.903-1.65.662-1.638l-1.589.181s-1.125 1.125-2.274 1.723c-.232.1-.573.149-.892.173L8.039 9.36a12.75 12.75 0 0 0-2.641 8.798c.48 6.413 5.86 11.589 12.287 11.832A12.82 12.82 0 0 0 31 17.181a12.77 12.77 0 0 0-3.893-9.19z"/><path fill="#404040" d="M32.814 34.471s-.335.646-.144.934h1.436s.311 1.293-.191 2.705c.311-.239.551-.574.551-.574s.359-1.915.263-2.992c-.551.022-1.915-.073-1.915-.073z"/><path d="M42.652 30.306c-.455.383-1.077 1.34-1.077 1.34l1.34-.886c0 .001.191-.837-.263-.454zm-1.293 2.393s.407-.287.694-.431c-.168.933-.886 1.316-.886 1.316l.024.742c1.317-.957 1.46-2.992 1.46-2.992l-1.364.91.072.455z" fill="#767676"/><g fill="#404040"><path d="M35.579 28.748l-.578.12-.781-3.488.581-.401-.048-.215-2.035.79.036.156.771-.093.097.372-1.403 3.152-.633-2.743.581-.401-.048-.215-2.035.79.036.156.771-.093.793 3.469-.565.296.064.202 1.852-.677-.075-.154-.595.103-.072-.364c.519-.962 1.147-2.396 1.422-3.156l.608 2.765-.564.319.071.2 1.828-.738-.079-.152zM18.5 31.638l-.638-.447s.048.941-.782 1.867c.558-.303 1.42-1.42 1.42-1.42z"/><path d="M20.72 34.769l-1.124-.012-.18-.662.537-.067c.068-.009.117-.071.108-.14s-.063-.127-.14-.108l-.572.073-.158-.578.613-.06c.069-.006.119-.067.112-.136s-.069-.128-.136-.112l-.656.064-.114-.419.067-.172.693-.054c.068-.006.12-.065.115-.135s-.074-.122-.135-.115l-.572.045.23-.59-.223-.239-.339.88-1.017.425c-.057.023-.088.084-.074.144l.341 1.467c-.001.013-.008.025-.005.039l.205.823c.014.058.065.097.122.097.008 0 .017-.001.025-.003l1.058-.22 1.213.016c.07 0 .126-.055.127-.123s-.053-.127-.121-.128zm-2.697-1.923l.699-.292-.047.122.124.448-.633.339-.143-.617zm.295 1.266l-.092-.396.642-.345.15.542-.7.199zm.056.243l.71-.202.179.647-.75.154-.139-.599zm-1.68-.224l-.232-.418.411-.226.516.272c.063.033.137.009.169-.052s.009-.137-.052-.169l-.575-.304a.12.12 0 0 0-.119.001l-.497.273c-.035-.016-.074-.021-.109-.001s-.052.055-.057.093l-.288.158-.088-.013 1.201-1.651c.041-.056.028-.134-.027-.174s-.133-.029-.174.027l-.69.947-.588-.259.78-1.186c.038-.058.021-.135-.036-.173s-.135-.022-.173.036l-.861 1.309c-.021.03-.025.068-.016.104s.036.064.069.079l.674.297-.484.665c-.026.035-.031.081-.015.122s.054.068.098.075l.335.048c.039.001.06-.004.079-.015l.3-.165.223.4.172 1.001c.011.061.063.104.123.104.007 0 .014-.001.021-.002.067-.012.113-.076.102-.145l-.176-1.021c-.004-.012-.009-.025-.016-.037zm.427.07c-.058-.04-.135-.029-.175.028s-.027.134.028.175l.75.543c.022.016.048.023.073.023.039 0 .077-.018.102-.052.04-.056.027-.134-.028-.175l-.75-.542zm-1.115.201c-.075-.001-.13.048-.135.113l-.064.719c-.007.068.044.129.113.135.075.001.13-.048.135-.113l.064-.719c.007-.068-.044-.129-.113-.135zm6.863 6.613l.002.021c-.069-.162-.224-.358-.529-.592-.89-.686-2.033-1.064-3.306-1.095l-.038-.001c-.013 0-.026-.001-.039-.001-.342 0-.625.153-.668.365-.021.106 0 .306.387.452.367.14.637.149.807.032a.37.37 0 0 0 .161-.293c0-.068-.043-.129-.125-.123-.066 0-.122.054-.125.12 0 .006-.004.059-.056.092-.044.029-.192.084-.573-.063-.179-.067-.236-.139-.23-.168.012-.061.186-.16.453-.164l.04.001c1.202.028 2.324.398 3.16 1.042.372.286.542.539.455.676-.151.241-1.028.282-1.822-.12-.042-.021-.091-.017-.13.01s-.057.073-.05.12c.015.1-.042.2-.155.273-.242.158-.761.194-1.428-.223-.086-.053-.129-.122-.122-.194s.065-.138.15-.169c.186-.063.439.035.681.271.049.05.128.048.177-.001s.047-.129-.002-.177c-.451-.442-.808-.378-.94-.328-.176.063-.296.208-.313.378-.015.147.063.282.19.383.024.021.03.039.048.049a2.92 2.92 0 0 0 .358.19c1.174.607 1.965.203 1.592-.281a3.27 3.27 0 0 0 .371.13c1.376.555 2.106.059 1.619-.612zm-5.262-16.493l-.282.603-1.038.205-.023-.313c.606-.367 1.02-.98.99-1.664-.045-1.044-1.006-1.754-2.169-1.704s-2.088 1.03-2.043 2.074c.036.842.652 1.42 1.497 1.588l.077.295-1.048.143-.463-.479-.112.128.399.941L15 26.111l-.167-.935c-.678-.098-1.191-.648-1.226-1.465-.04-.929.602-1.794 1.419-1.829s1.498.604 1.538 1.533c.026.59-.234 1.131-.636 1.457l.018.119h-.001l.145.939 1.594-.304.072-1.02-.149-.084zm-9.664 8.337c-.174-.253-.333-.581-.471-.923.002-.012.012-.019.013-.032.005-.053-.029-.093-.075-.115l-.143-.444c.029-.001.058-.008.082-.028.051-.046.055-.125.009-.177s-.113-.11-.19-.166c-.032-.149-.055-.292-.068-.425l.278.049c.078.001.131-.046.139-.109s-.04-.131-.109-.139c-.12-.014-.236-.039-.353-.063-.15-.731-.87-1.334-1.424-1.734-.304-.219-.476-.162-.566-.077-.189.175-.134.622.001.987l-.076-.049c-.057-.041-.135-.026-.174.031s-.025.135.031.174c.016.011.169.114.408.247.292.594.75 2.561.754 2.583.017.066.078.108.15.094s.109-.083.094-.15l-.654-2.346a6.25 6.25 0 0 0 1.239.452c.007.097.033.211.051.318-.18-.079-.37-.116-.511-.039-.116.064-.234.222-.128.608.015.056.065.092.12.092.011 0 .021-.001.033-.005.066-.018.105-.087.087-.153-.046-.171-.043-.294.008-.322.081-.039.271.027.444.133.063.263.153.533.256.8-.151.031-.454-.121-.557-.316-.031-.062-.107-.084-.168-.053s-.085.107-.053.168c.133.255.476.464.736.464a.44.44 0 0 0 .082-.008c.022-.004.034-.022.054-.03.134.314.282.613.444.848.024.035.063.054.103.054.024 0 .05-.007.071-.022.059-.042.072-.12.033-.177zm-2.517-3.217c-.21-.343-.295-.887-.19-.983.018-.013.09-.019.25.098.731.527 1.143 1.007 1.285 1.462-.531-.145-1.002-.361-1.325-.535-.007-.012-.014-.032-.02-.042zm1.129-7.905v-.299l-.41-.131c-.018-.175-.116-.903-.549-1.052-.422-.145-.632.106-.611-.625-.058 0-.16-.015-.16-.015-.077.363-.095.757.187.961.247.179.783-.103.883.651l-1.181-.376-.145-.191-.016.479.601.18c-.077.436-.183 1.278.06 1.652.144.112.179.159.371-.108.215-.299.245-.191.261-.032s-.016.878-.463.782-.638-.415-.734-2.186c-.048 1.612-.016 2.505.702 2.697s.83-.846.638-1.771-.456.164-.584.211c-.107.04-.106-.69-.075-1.192l1.225.365zm.631-6.509c-.072-.153.342-.514.342-.514l.009-.82-.559.559-.676.036c.37-.387.342-.91-.081-.505s-.55.946-.55.946l1.162-.099.568-.604v.261l-.351.397c-.189.73.37.694.37.694l.487-.46.045-.306-.432.478c-.001 0-.262.09-.334-.063zm-1.226-.721s.171-.351.315-.378.162.117-.099.36l-.216.018z"/><path d="M8.42 12.948l-.73 1.874s.892-.577 1.09-1.28-.36-.594-.36-.594zm.135.64c-.126.369-.504.712-.504.712l.414-1.009s.217-.072.09.297zm2.785-6.403c-.053-.045-.132-.039-.176.014L10.016 8.61l-.373.081c.11-.15.245-.296.308-.359.049-.049.049-.128.001-.177s-.128-.049-.177 0c-.017.016-.391.392-.506.683-.018.044-.009.095.023.13.023.027.058.041.093.041.011 0 .022-.001.033-.004l.371-.089c-.201.274-.362.517-.414.654-.017.046-.006.097.028.132s.087.045.132.03c.065-.024.143-.041.216-.051l-.195.34c-.034.06-.014.136.046.17a.13.13 0 0 0 .063.017c.043 0 .085-.022.108-.063l.315-.55c.022-.039.022-.087-.001-.126s-.068-.07-.111-.061c-.008 0-.113.004-.242.022a9.65 9.65 0 0 1 .453-.63c.007-.008.012-.013.017-.022l1.151-1.417c.043-.052.038-.131-.015-.176zm19.383 9.067l-1.087.294.066.132.163-.008c.176.036.292.099.287.219l-.219 2.669-1.087-1.187.273-1.242c.031-.156.128-.255.269-.316l.175-.075-.072-.156-1.153.294.078.144.239-.015c.149.082.232.184.194.321l-.17.862-.701-.765c-.081-.095-.061-.177.016-.251l.235-.115-.084-.144-1.305.323.108.144.304-.016a.46.46 0 0 1 .155.101l1.157 1.307-.245 1.242-1.88-2.242c-.022-.033-.017-.071-.002-.112l.355-.197-.112-.153-1.503.406.072.108.283.004c.156.021.291.071.389.176l2.316 2.761.09-.03.393-1.786 1.199 1.354.096-.054.402-3.418c.013-.175.124-.293.283-.384l.083-.042-.06-.153zm9.917-2.414c-.455-.539-.73.012-.634.718s1.065 1.58 1.065 1.58c-.215 1.496-1.879.132-2.442-.862.491 1.604 2.082 2.729 2.561 1.843s-.096-2.741-.55-3.279zm-.24.909c-.203-.443.12-.467.299-.156s.239.407.335.814c.001.001-.43-.215-.634-.658zm-2.8-5.852c-.275-.18-.73-.778-.73-.778l-.44.377c-.324-.3-.672-.574-.864-.677-.215-.096-.778.12-.73.12 0 0-.694.227-.371 1.089s1.017 1.484 1.017 1.484.706.694 1.221-.335c.467-.251.658-.491.395-.934-.098-.165-.287-.379-.503-.592l.18-.21c.31.516.609.624.825.456zm-1.628 1.388c-.347-.299-1.041-1.424-1.245-1.699s.024-.443.024-.443l1.735 2.13c-.059.096-.167.311-.514.012zm.838-.826c.168.287.156.395-.072.503-.239-.515-1.699-1.987-1.699-1.987s.144-.156.407.048 1.196 1.149 1.364 1.436z"/><path d="M25.911 9.389c-.054.153-.369.234-.369.234l-.394.112-.165-.274.081-.171-.523-.045-.189.189.279.045.137.364-.746.212c-.209-.124-.499.001-.499.001s-.018.108.054.099.216.126.216.126l.297.595c.153.333.523.189.523.189l-.438-.857 1.727-.522c.261 1.289-.27 1.874-.667 2.577 1.541-1.081 1.198-2.46 1.198-2.46s.009-.099.054-.189c-.08-.09-.297-.153-.576-.225zm2.145 2.072l-.351-.703.054-.216-.138.008c.124-.178.23-.377.282-.62-.126-.108-.541-.117-.541-.117l.09.117s-.081.856-.793 1.433c.201-.108.495-.291.755-.558l.381.693s-.036-.009-.054.144c.144.153.351.135.351.135l-.036-.316zm14.536 12.248a.31.31 0 0 0 .03.001c.269 0 .501-.338.546-.805h0c.047-.485-.131-.872-.413-.899-.009-.001-.02.007-.03.008l-.017-.109-.18-.09.048.239c-.08.039-.157.1-.22.198a1.28 1.28 0 0 0-.176.559c-.048.484.13.871.412.898zm-.026-1.323c.052-.082.112-.131.158-.131.107.01.23.259.195.626-.035.36-.197.579-.298.579-.107-.01-.23-.258-.195-.626a1.09 1.09 0 0 1 .14-.448zm1.106 2.043s-.036-2.289-.216-3.109c-.18-.009-.424-.045-.424-.045v.189l.27.225.168 1.772-.988.976c-.252.198-.667.144-.667.144.144.261.442.288.442.288s.153-.18.252-.234c.069-.042.147-.106.227-.176l.043 1.545c.081-.234.18-.55.162-.865l-.018-.856c.23-.228.449-.482.561-.617.05.754.076 1.552.016 2.058.109-.475.172-1.295.172-1.295zM10.085 37.953s-.443-.263-.586-.527.203-.359.61.084.73.766.395.766c.108.084.191.191.191.191s.515.096.778.371l.79.778s.18.275-.275.132l.144.191s.91.227.251-.467-1.185-.934-1.532-1.065c0 0 .096-.335-.156-.586s-.574-.586-1.173-.826-.215.323-.108.467.658.563.658.563l.013-.072z"/></g><g fill="#767676"><path d="M31.364 41.83c-.11 0-.228-.03-.275-.13-.084-.178.133-.35.332-.48.597-.391 1.106-.464 1.3-.332.051.033.079.087.077.146l.22-.067.447-.55c.043-.054.121-.063.176-.018s.062.122.018.176l-.469.576c-.014.017-.032.03-.053.038l-.847.315c-.063.021-.129-.006-.157-.064s-.005-.129.052-.161c.115-.065.229-.145.301-.203-.13-.006-.354.041-.642.187.112.016.139.064.152.09s.043.106-.037.192a.83.83 0 0 1-.414.26.68.68 0 0 1-.181.025zm-.003-.25a.35.35 0 0 0 .108-.014l.125-.049c-.033-.008-.063-.029-.08-.06-.077.055-.124.095-.153.123z"/><path d="M33.651 40.954c-.025 0-.051-.008-.073-.023-.056-.04-.068-.118-.028-.175l.402-.618c-.204.055-.438.146-.514.27a.14.14 0 0 0-.011.128c.022.065-.012.137-.076.16s-.137-.012-.16-.076a.39.39 0 0 1 .033-.342c.204-.334.903-.434.934-.438s.086.011.113.045.036.079.021.12c-.096.275-.521.872-.54.897-.023.034-.062.052-.101.052z"/></g><g fill="#bebebe"><path d="M3.875 26.167c.139.09.395.255.606.104.233-.167.163-.498-.005-1.172-.052-.208-.031-.317.003-.348.063-.058.291-.041.496.035.132.051.5.308.614.579.051.119.03.192.011.236-.26.595-.117 1.41.333 1.898.46.499 1.972.875 3.159.777l.103-.009-.103 1.266c-.116.974.383 2.159 1.091 2.59.351.214.713.216 1.021.009.421-.286.764-.386 1.008-.305.252.084.462.369.626.849.23.675.112.896.051.96-.094.097-.307.107-.572.028l-.146-.045c-.521-.164-1.307-.409-1.754-.028-.244.206-.335.548-.271 1.017.054.392.248.839.507 1.297-.966-.297-1.612-.818-1.649-1.005-.117-.585-.517-.913-1.314-1.387-.347-.207-.609-.22-.777-.041-.143.15-.144.378-.086.608-.468-.396-1.033-.972-1.402-1.381l-.028.025.92 1.574c.382.338.767.629 1.036.701.1.026.207-.011.268-.096s.063-.198.005-.284c-.211-.315-.312-.601-.333-.747a1.15 1.15 0 0 1 .141.071c.765.454 1.006.69 1.079 1.055.097.484 1.134 1.249 2.521 1.519.591.867 1.348 1.714 1.903 2.263-.2.048-.341.152-.407.311-.098.229-.057.61.691 1.117.943.638 1.642.882 2.077.737.093-.031.174-.08.24-.145l.391.277c.69.492 1.54 1.099 2.258 1.402.193.475 1.196.886 2.356 1.212C21.67 43.879 22.82 44 24 44c.141 0 .278-.018.419-.021-3.9-.583-5.683-1.371-5.766-1.654a.25.25 0 0 0-.159-.261c-.684-.259-1.565-.889-2.274-1.395l-.61-.43c-.065-.044-.146-.057-.221-.029s-.133.083-.157.157c-.021.066-.053.089-.094.103-.196.071-.738-.069-1.635-.678-.42-.284-.511-.475-.519-.499.021-.021.178-.085.551-.006.111.02.225-.032.275-.135s.024-.227-.063-.301c-.458-.391-1.328-1.297-2.035-2.249.205.013.413.02.627.007 1.916-.12 3.958.082 4.203.176.091.035.15.085.176.148.037.095.012.244-.072.421a.84.84 0 0 0 .075.849c.289.429.92.665 1.753.665l.279-.008c.761-.046 2.063-.213 2.231-.818.038-.137.046-.405-.333-.667-.283-.195-.443-.389-.43-.518s.211-.279.526-.409c.737-.302 2.497-.82 4.258-1.076.516.929 1.364 1.495 1.902 1.845.151.099.323.251.284.42-.061.258-.55.582-1.182.654l-.523.046c-.985.077-2.336.184-2.259 1.297a1.07 1.07 0 0 0 .572.91c.582.316 1.538.212 2.383-.254 1.143-.632 1.491-.473 1.842.123.393.667.118 1.221-.081 1.42a.25.25 0 0 0-.07.217c.014.079.063.147.136.184.054.028.557.255 1.517-.11.324-.122.449-.105.465-.114.001.031-.015.134-.119.298-.206.329-1.041.607-1.643.315a.26.26 0 0 0-.199-.008c-.064.025-.115.076-.142.141-.14.35-.512.748-.756.985l.792-.121a3.33 3.33 0 0 0 .321-.456c.78.238 1.734-.088 2.051-.589.226-.358.258-.669.09-.874-.271-.333-.848-.117-1.037-.044-.349.132-.614.169-.799.171.198-.396.301-.998-.093-1.668-.626-1.063-1.458-.892-2.516-.307-.692.381-1.475.484-1.902.253a.58.58 0 0 1-.313-.507c-.039-.574.722-.679 1.8-.763l.541-.049c.698-.079 1.476-.461 1.611-1.035.048-.205.047-.601-.498-.955-.602-.391-1.231-.848-1.645-1.492l1.038-.082c2.5-.08 4.501-.497 5.49-1.142.332-.217.548-.411.521-.66-.026-.255-.278-.353-.502-.438-.15-.059-.339-.131-.399-.227-.033-.054-.033-.146.001-.259.114-.381.606-.942 1.23-1.222.753-.337 1.953-.518 2.279-.245.032.026.105.088.057.293-.155.649-.2 1.104.055 1.362.236.239.618.189.962.113.506-.116 2.103-1.028 3.694-2.278.071.36.076.767-.036 1.251-.266 1.145-.611 1.553-.854 1.694-.193.111-.364.085-.522.038-.19-.059-.444-.008-.714.139-.473.259-.848.735-1.002 1.276-.146.514-.016.98.333 1.189.134.078.414.184.839.029-1.165 1.85-2.506 3.654-4.693 5.388l-.919.716c.746-.326 1.463-.702 2.161-1.109 2.065-1.853 3.309-3.769 4.489-5.729a.25.25 0 0 0-.389-.307c-.618.604-1.048.694-1.231.583-.146-.087-.19-.338-.109-.623a1.64 1.64 0 0 1 .762-.975c.192-.105.306-.104.331-.099.219.065.552.127.916-.084.484-.282.841-.94 1.09-2.014.159-.683.117-1.235-.019-1.711.774-.64 1.524-1.351 2.121-2.08-.003.459.098.736.304.828.315.14.616-.18.846-.477.908-1.178.659-2.127.501-2.494l.738-1.024.05-.992c-.48.79-1.269 1.823-1.279 1.836-.063.083-.067.197-.013.286.021.035.529.887-.394 2.083-.106.138-.184.217-.234.261-.035-.217-.005-.703.08-1.164.021-.116-.067-.193-.178-.238s-.262.033-.327.132c-.587.884-1.469 1.764-2.397 2.544-.145-.318-.322-.604-.493-.875-.291-.461-.542-.859-.575-1.33s.079-.819.333-1.035c.26-.22.619-.26.86-.204.254.059.489-.001.672-.169.309-.283.434-.85.335-1.516-.095-.636-.359-1.383-.819-1.572-.206-.085-.431-.049-.631.1-.173.13-.31.35-.455.581-.18.289-.384.615-.59.627-.166 0-.381-.163-.62-.462-.387-.483-.676-1.249-.912-2.061a14.44 14.44 0 0 0 3.2-2.444l.303-.293c.116-.106.333-.276.491-.213s.328.366.367.908c.046.646.232 1.05.555 1.202.269.125.577.062.925-.186.278-.199.446-.482.485-.819.058-.502-.182-.988-.347-1.177-.137-.155-.543-.703-.066-1.232.24-.266.597-.381.898-.43l-.142-.481c-.373.069-.81.225-1.127.577-.599.665-.342 1.437.061 1.896a1.18 1.18 0 0 1 .227.79.64.64 0 0 1-.279.47c-.181.129-.335.179-.421.141-.106-.05-.233-.283-.27-.785-.05-.698-.299-1.185-.681-1.337-.215-.085-.566-.1-1.014.309l-.316.306a13.91 13.91 0 0 1-2.985 2.306l-.277-1.123c-.231-.98-.415-1.754-.678-2.12-.198-.275-.423-.414-.668-.414h-.001c-.435 0-.753.444-.963.738l-.107.145c-.099.123-.434.334-.778.286-.352-.047-.645-.339-.871-.867-.241-.563-.274-1.004-.096-1.274.214-.325.663-.335.927-.311.197.016.418.036.576-.134s.18-.451.078-1.063c-.077-.459-.438-1.003-.904-1.575.979-.376 1.978-.842 2.675-1.366.289-.186.582-.229.825-.119.215.096.366.298.405.54.063.392.351.657.788.728.533.088 1.28-.143 1.531-.624.154-.295.087-.626-.186-.909-.349-.361-.344-.495-.347-.495.032-.04.194-.074.256-.087l.107-.025.141-.038 1.381-.443-.148-.215-.733.273-.178-.223-.453.126-.222.057c-.186.04-.532.112-.628.423-.082.267.065.583.463.995.178.185.123.29.103.329-.126.239-.633.421-1.009.362-.332-.054-.364-.25-.374-.314-.066-.409-.326-.751-.695-.916-.4-.18-.861-.124-1.314.165-.707.531-1.738 1.001-2.729 1.373l-.702-.781-1.242-1.503c-.068-.122-.173-.345-.098-.466.099-.158.515-.241 1.047-.215.409.026.601-.144.697-.287.175-.261.149-.65-.075-1.123s-.552-.797-.895-.88a.77.77 0 0 0-.664.15c-.407.314-.666.407-1.127.142-.291-.169-.509-.592-.644-.934l-.342.145-.123.052c.155.39.432.922.86 1.17.765.443 1.27.14 1.682-.178.08-.062.158-.083.242-.061.189.045.404.278.561.607.163.345.161.555.11.631-.045.066-.182.067-.255.066-.782-.042-1.287.11-1.498.45-.161.259-.132.587.087.975.239.426.759.994 1.309 1.596l.565.626c-1.03.358-1.946.596-2.31.666-.978.187-1.245.076-1.318-.008-.06-.069-.021-.221.007-.306.161-.485.098-.897-.181-1.162-.292-.277-.933-.492-2.318.052-.918.361-1.407.808-1.454 1.329-.037.422.24.751.489.904.102.063.245.12.397.178.137.052.423.162.458.22 0 .001-.021.116-.386.363-.904.611-3.541.748-4.492.779l.123.362-.531.1c.194.784.468 1.681.816 2.297.125.22.247.519.124.695-.163.235-.766.318-1.471.204-.56-.093-1.099.07-1.475.445-.389.387-.558.948-.464 1.541.121.758.534 1.619 1.186 1.834.294.097.758.1 1.295-.426.344-.336.739-.444 1.146-.307.56.188 1.038.812 1.138 1.481.056.38.029.95-.003 1.558-2.179.104-5.007.982-5.63 1.294-.448.224-.69.498-.721.815-.019.2.045.505.457.818.079.062.207.187.167.343-.056.222-.427.509-1.3.648-1.143.184-1.543.034-1.68-.121-.106-.122-.113-.339-.021-.645.125-.413.1-.769-.077-1.055-.277-.452-.838-.598-1.235-.668-.438-.075-1.908.021-3.591.16.037-1.121.01-2.296-.136-2.879-.16-.64-.476-.885-.713-.979-.303-.12-.661-.065-1.006.159-.076.05-.184.101-.257.057-.139-.077-.27-.433-.251-1.052.021-.717.279-.967.358-1.026s.125-.058.134-.056l.085.036c.306.134.941.409 1.369.095.267-.195.373-.563.318-1.093-.08-.766.007-1.671.11-2.369l.641-.175.219-.075c-.456.037-.878.09-1.21.163 0 0-.024-.427.039-1.02l-.131.69a8.38 8.38 0 0 1-1.951.167c-.166-.004-.381-.036-.462-.16-.13-.2.047-.632.145-.87.116-.291.145-.734-.069-1.021-.109-.146-.327-.314-.728-.278-.973.089-1.035.911-1.121 2.05-.021.271-.127.324-.162.342-.275.142-.939-.126-1.33-.367l-.13.503c.256.143.79.405 1.266.405.149 0 .293-.026.42-.09.18-.091.4-.295.435-.751.105-1.388.229-1.549.668-1.589.211-.016.264.055.281.078.086.116.073.371-.014.587-.114.278-.352.858-.079 1.278.159.245.451.375.867.387a8.79 8.79 0 0 0 1.886-.143c-.094.698-.164 1.558-.086 2.313.035.332-.006.558-.115.638-.198.146-.69-.069-.874-.15l-.109-.046c-.174-.064-.382-.031-.57.096-.212.142-.57.518-.598 1.439-.023.784.151 1.303.505 1.502.134.075.411.163.774-.072.119-.077.35-.191.552-.114.183.072.325.292.411.635.129.518.158 1.669.119 2.8L9 27.783c-1.123.1-2.412-.311-2.699-.623a1.35 1.35 0 0 1-.241-1.358c.085-.196.082-.414-.009-.631-.182-.431-.675-.768-.899-.853-.156-.058-.686-.227-1.005.06-.198.177-.25.46-.154.842l.113.5c-.232-.159-.642-.517-1.016-.945l.086.811c.278.267.537.477.699.581zm33.962-2.032c.365.456.733.676 1.039.648.465-.026.741-.47.986-.861.113-.183.231-.372.331-.446.082-.061.12-.045.141-.038.178.073.418.535.515 1.184.082.553-.031.938-.179 1.073-.061.057-.13.072-.219.051a1.53 1.53 0 0 0-1.299.309c-.263.224-.563.656-.508 1.452.041.596.337 1.065.649 1.562.187.297.374.601.512.94-1.588 1.268-3.206 2.202-3.649 2.303-.406.093-.487.032-.495.023-.033-.034-.093-.188.076-.895.101-.42-.066-.663-.224-.794-.599-.497-2.122-.132-2.804.173-.698.313-1.331.958-1.505 1.534-.098.326-.023.545.056.671.148.234.423.34.643.426l.116.046a2.26 2.26 0 0 1-.229.167c-.915.597-2.822.983-5.232 1.061a13.89 13.89 0 0 0-1.269.11c-.12-.29-.199-.612-.22-.976-.026-.448.114-.833.418-1.145.512-.523 1.392-.747 1.837-.721.456.018.919-.021 1.239-.377.304-.339.397-.896.285-1.702-.093-.668-.341-1.07-.737-1.195-.694-.218-1.489.533-1.8.867-.055.06-.555.58-1.143.584-.31 0-.598-.141-.863-.419-.558-.584-.541-1.934-.482-3.128h.034c2.147.022 4.552-.612 5.336-1.089.554-.337.82-.682.817-1.052-.003-.336-.235-.642-.693-.91-.299-.175-.294-.34-.292-.395.01-.357.546-.87 1.334-1.273.799-.409 1.729-.516 2.075-.234.046.037.184.149.09.487-.122.443-.078.782.133 1.008.321.343.864.241.954.222 1.308-.436 2.364-.911 3.255-1.386.247.827.552 1.612.971 2.135zm-15.463-1.516c-.588-.197-1.174-.047-1.655.423-.288.283-.554.387-.788.309-.43-.142-.752-.831-.849-1.438-.068-.432.049-.835.322-1.107.266-.265.635-.372 1.042-.307.351.058 1.536.2 1.961-.411.219-.313.185-.726-.099-1.227-.299-.528-.545-1.304-.727-2.016 1.066-.037 3.666-.194 4.653-.862.302-.204.644-.482.604-.828-.041-.355-.432-.504-.777-.636-.119-.045-.233-.087-.313-.136-.103-.063-.271-.226-.253-.434.027-.303.442-.634 1.14-.907 1.28-.505 1.693-.246 1.79-.155.175.166.107.473.051.641-.138.412-.026.659.092.793.338.386 1.095.302 1.788.17.396-.075 1.428-.345 2.565-.751.461.552.843 1.09.907 1.472l.074.624h.001c-.026.009-.122 0-.192-.006-.383-.032-1.047.019-1.387.534-.279.424-.262 1.011.054 1.747.373.873.893 1.115 1.263 1.166.569.081 1.059-.248 1.236-.47l.123-.166c.132-.185.379-.529.558-.529.099 0 .207.129.262.206.206.286.396 1.09.598 1.943l.311 1.251a20.15 20.15 0 0 1-3.245 1.393c-.085.017-.351.038-.46-.082-.081-.087-.087-.276-.016-.532.157-.568-.093-.875-.256-1.009-.578-.471-1.754-.267-2.62.176-.476.244-1.583.898-1.605 1.705-.007.235.081.572.539.84.287.168.445.339.446.482.002.17-.209.396-.577.62-.697.425-2.932 1.018-4.92 1.018l-.164-.001c.033-.62.058-1.202-.004-1.622-.128-.858-.734-1.632-1.473-1.881zM9.589 29.593l.107-1.366 3.526-.172c.474.084.768.227.896.438.099.159.106.378.024.648-.146.48-.104.857.122 1.117.221.252.598.376 1.162.376a6.18 6.18 0 0 0 .973-.089c1.314-.21 1.634-.729 1.707-1.021.078-.313-.052-.635-.35-.862-.179-.136-.271-.27-.262-.374.012-.128.175-.279.446-.415.575-.288 3.308-1.128 5.381-1.239-.065 1.328-.073 2.735.621 3.462.367.384.759.563 1.229.573.78-.006 1.391-.621 1.505-.744.489-.525 1.009-.816 1.283-.73.244.077.348.471.392.787.09.644.036 1.08-.161 1.299-.174.194-.471.227-.851.212-.523-.003-1.561.203-2.211.871a1.94 1.94 0 0 0-.561 1.523 3.42 3.42 0 0 0 .222 1.012c-1.761.271-3.494.785-4.231 1.088-.518.213-.799.487-.834.818s.181.664.644.983c.107.074.13.122.134.122-.043.111-.547.378-1.778.451-1.16.072-1.507-.316-1.588-.437s-.092-.242-.039-.354c.149-.313.178-.589.085-.821-.077-.195-.236-.344-.46-.43-.363-.14-2.527-.33-4.414-.207-.345.021-.667-.007-.976-.055-.358-.549-.632-1.086-.691-1.518-.027-.197-.032-.457.098-.566.24-.201.918.011 1.282.123l.151.047c.464.14.845.08 1.076-.16.276-.287.297-.78.062-1.469-.219-.644-.527-1.023-.94-1.161s-.885-.018-1.447.365c-.051.035-.207.143-.479-.021-.488-.297-.959-1.233-.855-2.104z"/><path d="M21.213 15.091l-.017.003c.06.437.148.862.262 1.234l-.245-1.237z"/></g><path fill="#767676" d="M25.116 43.687a2.9 2.9 0 0 1-.365-.021c-.306-.042-.464-.135-.481-.286-.051-.421 1.125-.575 1.26-.591.326-.04.639-.044.883-.011.306.042.464.135.481.286s-.112.278-.4.391c-.228.09-.532.161-.86.2-.181.021-.356.032-.518.032zm-.588-.339c.095.063.488.128 1.075.059s.953-.229 1.031-.313c-.095-.063-.488-.128-1.076-.058s-.953.229-1.03.312zm2.12-.271h0 0 0z"/></svg>